<mxfile host="app.diagrams.net" agent="Mozilla/5.0 (Windows NT 10.0; Win64; x64) AppleWebKit/537.36 (KHTML, like Gecko) Chrome/138.0.0.0 Safari/537.36 Edg/138.0.0.0" version="28.0.6">
  <diagram name="Page-1" id="Yay8gkdrrfTUArw_L0t_">
    <mxGraphModel dx="994" dy="1386" grid="1" gridSize="8" guides="1" tooltips="1" connect="1" arrows="1" fold="1" page="1" pageScale="1" pageWidth="1100" pageHeight="850" background="none" math="0" shadow="1">
      <root>
        <mxCell id="0" />
        <mxCell id="1" parent="0" />
        <mxCell id="HWF5bPFHuASDPKqARBnk-1" value="" style="rounded=0;whiteSpace=wrap;html=1;fillColor=#f8cecc;strokeColor=#b85450;" vertex="1" parent="1">
          <mxGeometry x="257" y="32" width="192" height="160" as="geometry" />
        </mxCell>
        <mxCell id="YleI4EzTrmfIdfU0BML3-26" value="" style="rounded=0;whiteSpace=wrap;html=1;fillColor=#d5e8d4;strokeColor=#82b366;" parent="1" vertex="1">
          <mxGeometry x="128" y="230" width="488" height="217" as="geometry" />
        </mxCell>
        <mxCell id="iATs5-p0Ry6HwTi2f4iV-7" style="edgeStyle=orthogonalEdgeStyle;rounded=0;orthogonalLoop=1;jettySize=auto;html=1;exitX=0.5;exitY=0;exitDx=0;exitDy=0;entryX=0;entryY=0.75;entryDx=0;entryDy=0;strokeWidth=2;" parent="1" source="ynbUYO4sn585GT9K957H-20" target="YleI4EzTrmfIdfU0BML3-15" edge="1">
          <mxGeometry relative="1" as="geometry" />
        </mxCell>
        <mxCell id="iATs5-p0Ry6HwTi2f4iV-8" value="&lt;b&gt;HTTPS 443&lt;/b&gt;" style="edgeLabel;html=1;align=center;verticalAlign=middle;resizable=0;points=[];" parent="iATs5-p0Ry6HwTi2f4iV-7" vertex="1" connectable="0">
          <mxGeometry x="-0.6002" y="-2" relative="1" as="geometry">
            <mxPoint x="-2" y="-9" as="offset" />
          </mxGeometry>
        </mxCell>
        <mxCell id="ynbUYO4sn585GT9K957H-20" value="" style="rounded=0;whiteSpace=wrap;html=1;fillColor=#f5f5f5;strokeColor=#666666;fontColor=#333333;" parent="1" vertex="1">
          <mxGeometry x="152" y="301" width="131.5" height="120" as="geometry" />
        </mxCell>
        <mxCell id="YleI4EzTrmfIdfU0BML3-15" value="" style="rounded=0;whiteSpace=wrap;html=1;fillColor=#f5f5f5;strokeColor=#666666;fontColor=#333333;" parent="1" vertex="1">
          <mxGeometry x="287.25" y="48" width="130" height="128" as="geometry" />
        </mxCell>
        <mxCell id="iATs5-p0Ry6HwTi2f4iV-6" style="edgeStyle=orthogonalEdgeStyle;rounded=0;orthogonalLoop=1;jettySize=auto;html=1;exitX=0;exitY=0.25;exitDx=0;exitDy=0;entryX=1;entryY=0.25;entryDx=0;entryDy=0;strokeColor=#3333FF;strokeWidth=2;" parent="1" source="YleI4EzTrmfIdfU0BML3-17" target="YleI4EzTrmfIdfU0BML3-15" edge="1">
          <mxGeometry relative="1" as="geometry" />
        </mxCell>
        <mxCell id="iATs5-p0Ry6HwTi2f4iV-18" value="&lt;b&gt;HTTPS 443&lt;/b&gt;" style="edgeLabel;html=1;align=center;verticalAlign=middle;resizable=0;points=[];" parent="iATs5-p0Ry6HwTi2f4iV-6" vertex="1" connectable="0">
          <mxGeometry x="0.0639" relative="1" as="geometry">
            <mxPoint y="1" as="offset" />
          </mxGeometry>
        </mxCell>
        <mxCell id="YleI4EzTrmfIdfU0BML3-51" value="" style="rounded=0;whiteSpace=wrap;html=1;fillColor=#fff2cc;strokeColor=#d6b656;" parent="1" vertex="1">
          <mxGeometry x="635" y="32" width="184" height="160" as="geometry" />
        </mxCell>
        <mxCell id="iATs5-p0Ry6HwTi2f4iV-2" style="edgeStyle=orthogonalEdgeStyle;rounded=0;orthogonalLoop=1;jettySize=auto;html=1;exitX=0.5;exitY=0;exitDx=0;exitDy=0;entryX=1;entryY=0.75;entryDx=0;entryDy=0;strokeWidth=2;" parent="1" source="YleI4EzTrmfIdfU0BML3-27" target="YleI4EzTrmfIdfU0BML3-15" edge="1">
          <mxGeometry relative="1" as="geometry" />
        </mxCell>
        <mxCell id="iATs5-p0Ry6HwTi2f4iV-5" value="&lt;b&gt;HTTPS 443&lt;/b&gt;" style="edgeLabel;html=1;align=center;verticalAlign=middle;resizable=0;points=[];" parent="iATs5-p0Ry6HwTi2f4iV-2" vertex="1" connectable="0">
          <mxGeometry x="-0.4345" y="1" relative="1" as="geometry">
            <mxPoint x="1" y="18" as="offset" />
          </mxGeometry>
        </mxCell>
        <mxCell id="YleI4EzTrmfIdfU0BML3-27" value="" style="rounded=0;whiteSpace=wrap;html=1;fillColor=#dae8fc;strokeColor=#6c8ebf;" parent="1" vertex="1">
          <mxGeometry x="384" y="299" width="212" height="120" as="geometry" />
        </mxCell>
        <mxCell id="YleI4EzTrmfIdfU0BML3-10" value="&lt;div&gt;WAPT Agent&lt;/div&gt;&lt;div&gt;Production PC&lt;/div&gt;" style="sketch=0;pointerEvents=1;shadow=0;dashed=0;html=1;strokeColor=none;fillColor=#00BEF2;labelPosition=center;verticalLabelPosition=bottom;verticalAlign=top;outlineConnect=0;align=center;shape=image;labelBackgroundColor=default;aspect=fixed;image=img/lib/allied_telesis/computer_and_terminals/Laptop.svg;points=[];" parent="1" vertex="1">
          <mxGeometry x="519" y="315" width="51" height="52" as="geometry" />
        </mxCell>
        <mxCell id="YleI4EzTrmfIdfU0BML3-17" value="" style="rounded=0;whiteSpace=wrap;html=1;fillColor=#f5f5f5;strokeColor=#666666;fontColor=#333333;" parent="1" vertex="1">
          <mxGeometry x="669.03" y="55.75" width="118.95" height="101" as="geometry" />
        </mxCell>
        <mxCell id="YleI4EzTrmfIdfU0BML3-31" value="&lt;b&gt;Machine Network&lt;/b&gt;" style="text;html=1;align=center;verticalAlign=middle;whiteSpace=wrap;rounded=0;fontSize=13;" parent="1" vertex="1">
          <mxGeometry x="672.5" y="-5.25" width="110" height="30" as="geometry" />
        </mxCell>
        <mxCell id="ynbUYO4sn585GT9K957H-3" value="&lt;div&gt;WAPT Console&lt;/div&gt;" style="image;sketch=0;aspect=fixed;html=1;points=[];align=center;fontSize=12;image=img/lib/mscae/VirtualMachineWindows.svg;" parent="1" vertex="1">
          <mxGeometry x="192.75" y="321" width="50" height="46" as="geometry" />
        </mxCell>
        <mxCell id="ynbUYO4sn585GT9K957H-1" value="WAPT Server" style="image;sketch=0;aspect=fixed;html=1;points=[];align=center;fontSize=12;image=img/lib/mscae/VM_Linux.svg;" parent="1" vertex="1">
          <mxGeometry x="310.25" y="57.19999999999999" width="80" height="73.6" as="geometry" />
        </mxCell>
        <mxCell id="ynbUYO4sn585GT9K957H-11" value="&lt;div&gt;&lt;span style=&quot;background-color: light-dark(#ffffff, var(--ge-dark-color, #121212)); color: light-dark(rgb(0, 0, 0), rgb(255, 255, 255));&quot;&gt;WAPT Agent&lt;/span&gt;&lt;/div&gt;&lt;div&gt;&lt;span style=&quot;background-color: light-dark(#ffffff, var(--ge-dark-color, #121212)); color: light-dark(rgb(0, 0, 0), rgb(255, 255, 255));&quot;&gt;Machine PC&lt;/span&gt;&lt;/div&gt;" style="sketch=0;pointerEvents=1;shadow=0;dashed=0;html=1;strokeColor=none;fillColor=#00BEF2;labelPosition=center;verticalLabelPosition=bottom;verticalAlign=top;outlineConnect=0;align=center;shape=image;labelBackgroundColor=default;points=[];aspect=fixed;image=img/lib/allied_telesis/computer_and_terminals/Personal_Computer_with_Server.svg;" parent="1" vertex="1">
          <mxGeometry x="701.98" y="56.55000000000001" width="51" height="52" as="geometry" />
        </mxCell>
        <mxCell id="ynbUYO4sn585GT9K957H-15" value="WAPT Agent&lt;div&gt;Production PC&lt;/div&gt;" style="sketch=0;pointerEvents=1;shadow=0;dashed=0;html=1;strokeColor=none;fillColor=#00BEF2;labelPosition=center;verticalLabelPosition=bottom;verticalAlign=top;outlineConnect=0;align=center;shape=image;labelBackgroundColor=default;points=[];aspect=fixed;image=img/lib/allied_telesis/computer_and_terminals/Personal_Computer_with_Server.svg;" parent="1" vertex="1">
          <mxGeometry x="410" y="313" width="51" height="52" as="geometry" />
        </mxCell>
        <mxCell id="iATs5-p0Ry6HwTi2f4iV-19" value="&lt;b&gt;Production Network&lt;/b&gt;" style="text;html=1;align=center;verticalAlign=middle;whiteSpace=wrap;rounded=0;fontSize=13;" parent="1" vertex="1">
          <mxGeometry x="287.5" y="235" width="142.5" height="30" as="geometry" />
        </mxCell>
        <mxCell id="HWF5bPFHuASDPKqARBnk-2" value="&lt;b&gt;Transfer Network&lt;/b&gt;" style="text;html=1;align=center;verticalAlign=middle;whiteSpace=wrap;rounded=0;fontSize=13;" vertex="1" parent="1">
          <mxGeometry x="303.75" y="1" width="110" height="30" as="geometry" />
        </mxCell>
      </root>
    </mxGraphModel>
  </diagram>
</mxfile>
